# xmcd
#
# Track frame offsets: 
#        150
#        12235
#        21959
#        31934
#        45424
#        55661
#        67500
#        76916
#        88721
#        101485
#        112706
#        127016
#        136289
#        148766
#        157992
#        168381
#        178906
#        191981
#        204607
#        214832
#        224632
#        235306
#        248343
#        261593
#        275251
#        286458
#        297386
#
# Disc length: 4166 seconds
#
# Revision: 0
# Processed by: cddbd v1.5.2PL0 Copyright (c) Steve Scherf et al.
# Submitted via: ExactAudioCopy v1.0b3
#
DISCID=8c10441b
DTITLE=The Royalettes - The Singles Collection
DYEAR=2000
DGENRE=Rhythmic Soul
TTITLE0=No Big Thing
TTITLE1=Yesterday's Lover
TTITLE2=Willie The Wolf
TTITLE3=Blue Summer
TTITLE4=Come To Me
TTITLE5=There He Goes
TTITLE6=Dont You Cry
TTITLE7=He's Gone
TTITLE8=Watch What Happens
TTITLE9=Poor Boy
TTITLE10=It's Gonna Take A Miracle
TTITLE11=Out Of Sight Out Of Mind
TTITLE12=I Want To Meet Him
TTITLE13=Never Again
TTITLE14=You Bring Me Down
TTITLE15=Only When You're Lonely
TTITLE16=It's A Big Mistake
TTITLE17=It's Better Not To Know
TTITLE18=An Affair To Remember
TTITLE19=I Dont Want To Be The One
TTITLE20=When Summer's Gone
TTITLE21=Love Without An End
TTITLE22=He Is My Man
TTITLE23=Take My Love
TTITLE24=Something Wonderful
TTITLE25=River Of Tears
TTITLE26=Its Gonna Take A Miracle (alt)
EXTD=
EXTT0=
EXTT1=
EXTT2=
EXTT3=
EXTT4=
EXTT5=
EXTT6=
EXTT7=
EXTT8=
EXTT9=
EXTT10=
EXTT11=
EXTT12=
EXTT13=
EXTT14=
EXTT15=
EXTT16=
EXTT17=
EXTT18=
EXTT19=
EXTT20=
EXTT21=
EXTT22=
EXTT23=
EXTT24=
EXTT25=
EXTT26=
PLAYORDER=
